<svg id="Ebene_1" data-name="Ebene 1" xmlns="http://www.w3.org/2000/svg" viewBox="0 0 2674 445"><defs><style>.cls-2{fill:#020203}.cls-3{fill:#131618}</style></defs><g id="LOGO"><path d="M179 6A176.09 176.09 0 002.5 182.5a173.69 173.69 0 0020.8 83.2L175.1 12.2c1.7-2.8 5.1-3.4 6.8 0l149 243.4c2.8 3.4 0 6.2-3.9 6.2H123.4c-4.5 0-6.2-2.8-3.9-6.2.6-.6 17.4-29.2 24.2-40.5 8.4-13.5 14.6-17.4 34.3-17.4h41.6L178 128S93.7 269.7 65 316.9c30.4 25.9 70.3 41 113 41a176.41 176.41 0 00176.5-176.5C355 84.7 276.3 6 179 6" fill="#e5222d"/><path class="cls-2" d="M599.5 200.8c0-18-10.1-29.2-29.8-33.7a37.22 37.22 0 0014.1-7.3c5.6-5.1 8.4-12.4 8.4-21.4a32.15 32.15 0 00-5.1-18c-3.9-6.2-9-10.1-16.3-12.9-6.7-2.2-17.4-3.4-31.5-3.4h-36.5v136.1h32.1c11.2 0 19.7 0 24.7-.6 12.4-1.1 21.9-4.5 28.7-10.7 7.2-7.3 11.2-16.3 11.2-28.1m-71.4-75.3h9.6c10.1 0 16.8.6 20.2 2.2 5.6 2.2 8.4 7.3 8.4 14.6s-2.8 12.4-8.4 14.6c-3.9 1.7-10.1 2.2-18.6 2.2h-11.2zm36 91c-3.9 1.7-11.8 2.8-24.2 2.8h-11.8V180h12.4c10.7 0 18 1.1 21.9 2.8 6.7 2.8 10.1 8.4 10.1 17.4.6 7.9-2.8 13.5-8.4 16.3M680.4 229.4a28.3 28.3 0 002.2 11.2h23.6a47 47 0 01-2.2-15.2v-82h-25.3v51.7c0 16.9-6.2 25.3-19.1 25.3-5.6 0-10.1-1.7-12.9-5.6-2.3-2.8-3.4-8.4-3.4-15.7v-55.7H618v56.8a80.72 80.72 0 001.7 17.4 29 29 0 0013 19.1 38.4 38.4 0 0021.3 6.2c8.4 0 15.2-2.2 20.8-6.2a28.44 28.44 0 015.6-7.3M788.9 189.5v50.6h25.3v-56.2c0-7.9 0-13.5-.6-16.9-1.1-10.1-5.6-16.9-13.5-21.9a33.64 33.64 0 00-18.6-5c-11.8 0-21.4 5-28.7 14.6 0-5.1-.6-9-2.3-12.4h-24.7c1.1 3.9 2.2 7.9 2.2 10.7.6 4.5.6 12.4.6 24.2v62.4h25.5v-50c0-5.1 0-9 .5-11.2 1.1-5.1 2.8-9 6.2-11.8a18.24 18.24 0 0111.8-4.5q9.3 0 13.5 8.4c1.7 4.4 2.8 10 2.8 19M873.2 242.4c8.4 0 14.6-2.2 20.2-6.2 2.8-2.2 5-5 7.3-9.6v5.1a54 54 0 00.5 8.4h23.6c-.6-4-1.1-7.3-1.7-10.7 0-3.9-.5-10.7-.5-20.2V102.4h-25.3v51.1c-2.8-3.4-5.1-6.2-7.3-7.3a31 31 0 00-18-5.6 41.65 41.65 0 00-14.6 2.8 40.68 40.68 0 00-18 15.7c-5.6 9-8.4 20.2-8.4 32.6 0 16.9 5 29.8 14.6 39.4a37.29 37.29 0 0027.6 11.3m-8.4-74.2c3.4-3.9 7.9-5.6 13.5-5.6 6.8 0 11.3 2.2 14.6 7.3 3.9 5.1 5.6 12.9 5.6 22.5 0 10.1-2.2 18.6-7.3 24.2-3.3 3.9-7.9 5.6-13.5 5.6-6.2 0-10.7-2.3-13.5-6.2-4.5-5.6-6.2-12.9-6.2-22.5-.5-11.3 1.7-19.7 6.8-25.3M1031.2 213.1l-22.5-1.1c-3.4 7.3-9.6 10.7-18.6 10.7-8.4 0-14.6-2.8-18.5-8.4a35.65 35.65 0 01-5.1-16.3h66.3v-5c0-15.8-3.9-28.7-11.2-37.7-7.9-10.1-19.1-14.6-33.2-14.6a46 46 0 00-19.7 3.9c-8.4 3.4-14.6 9-19.7 16.9-5.6 9-8.4 19.7-8.4 32a62.53 62.53 0 004.5 23.1c3.4 7.8 8.4 14.6 15.2 19.1 7.9 5.1 17.4 7.9 28.7 7.9 13.5 0 23.6-3.9 31.5-11.8a40.05 40.05 0 0010.7-18.7m-42.7-53.4c10.7 0 17.4 6.7 19.1 19.7h-40.5c3.4-12.9 10.1-19.7 21.4-19.7M1130.1 212c0-10.1-3.9-17.4-11.8-21.9-3.9-2.2-10.1-4.5-18.6-6.7-11.2-3.4-17.4-5.6-19.7-6.7a7.42 7.42 0 01-4-6.8c0-3.4 1.7-5.6 4.5-7.3a16.28 16.28 0 019-2.2c9.6 0 14.6 4.5 15.7 13.5h24.2a38.15 38.15 0 00-5.1-16.3c-6.7-10.7-18-15.7-34.9-15.7-11.8 0-21.3 2.8-28.7 9-6.8 5.6-10.1 13.5-10.1 22.5 0 7.3 2.2 12.9 6.7 17.4 3.4 3.4 10.1 6.8 20.2 9.6 9.6 2.8 15.2 4.5 16.3 5.1 4.5 1.7 7.3 2.8 9 3.9s2.2 2.8 2.2 5.1a8.71 8.71 0 01-5.1 8.4c-2.8 1.7-6.2 2.3-10.1 2.3-6.8 0-11.3-1.7-14.6-4.5-2.3-2.3-3.4-6.2-3.9-11.2h-23.2c0 6.7 1.1 12.4 3.9 17.4 6.2 11.8 19.1 18 39.3 18 12.9 0 22.5-2.8 29.2-8.4 6.3-7.6 9.6-14.9 9.6-24.5M1206.6 231.1a77.36 77.36 0 001.1 9h23c-2.3-4-3.4-11.2-3.4-21.9v-39.4a98.9 98.9 0 00-.6-14.1c-1.1-7.8-3.9-14-9.5-17.4-6.8-4.5-15.8-7.3-27-7.3-13.5 0-24.2 2.8-31.5 9.5-6.2 4.5-9.6 11.8-10.7 21.9h24.2c1.7-7.3 6.7-11.2 16.9-11.2 5.6 0 10.1 1.7 12.4 4.5 1.7 2.3 2.2 5.6 2.2 10.1v1.7c-11.2 1.7-17.4 3.4-19.7 3.4-12.4 2.8-21.9 6.2-28.1 11.2-7.3 5.6-10.7 12.9-10.7 22.5s3.4 16.9 10.7 21.4c6.2 3.9 14.1 6.2 24.7 6.2 12.9 0 21.4-4.5 27-12.9a6.17 6.17 0 00-1 2.8m-3.4-31.4c0 4.5 0 7.3-.6 9.6a15.15 15.15 0 01-5.6 10.1c-3.4 2.8-7.3 3.9-12.4 3.9s-9-1.1-11.8-3.9a11.52 11.52 0 01-3.4-7.9c0-4.5 2.2-7.9 6.2-10.7s12.9-5 27-6.7v5.6zM1292.6 141.2c-15.2 0-26.4 4.5-33.7 13.5-4.5 5.6-6.8 12.4-6.8 20.8 0 7.3 1.7 14.1 5.6 19.1 2.3 3.4 6.2 6.2 10.7 8.4-4.5 1.7-8.4 3.4-10.7 5.1-3.9 2.8-6.2 6.2-6.2 10.1 0 5.1 3.4 9 10.7 11.8-4.5 1.7-8.4 3.4-10.7 5.6-5.6 3.9-8.4 10.1-8.4 17.4 0 8.4 4 15.2 11.2 20.2 9 5.6 21.4 8.4 37.1 8.4 14.6 0 25.9-2.3 33.7-7.3 9.5-5.6 14.1-14.1 14.1-25.3 0-5.6-1.1-10.7-3.9-14.6a23.39 23.39 0 00-8.4-7.9c-5.1-2.8-15.2-5.1-30.4-6.2-10.7-1.1-16.9-1.7-18-2.2-2.2-.6-3.4-1.7-3.4-3.4 0-3.4 3.4-5.1 9.6-5.6a124.52 124.52 0 0115.2-1.1 44.52 44.52 0 0013.5-3.4c10.1-4.5 15.2-12.4 15.2-24.2a29.76 29.76 0 00-5.1-17.4h19.7v-19.6l-32 .6a64.46 64.46 0 00-18.6-2.8m-5.1 97.8c8.4 0 15.2 1.1 20.2 3.4s7.3 5.1 7.3 9.6c0 3.4-1.7 6.2-5.6 8.4s-10.1 3.4-18 3.4a57.63 57.63 0 01-18.5-2.8c-5.6-2.2-9-5.1-9-9.6s2.2-7.3 7.3-9.5c4-2.3 9.6-2.9 16.3-2.9m15.8-54.5c-3.4 3.4-7.3 5.1-13.5 5.1-5.6 0-10.1-1.7-12.9-4.5a13.21 13.21 0 01-3.9-9.6 13.55 13.55 0 013.9-10.1c3.4-3.4 7.3-5.1 12.9-5.1a19.47 19.47 0 0112.4 3.9 14.46 14.46 0 014.5 10.7c-.1 4-1.2 7.3-3.4 9.6M1394.9 140.6a46 46 0 00-19.7 3.9c-8.4 3.4-14.6 9-19.7 16.9-5.6 9-8.4 19.7-8.4 32a62.53 62.53 0 004.5 23.1c3.4 7.8 8.4 14.6 15.2 19.1 7.9 5.1 17.4 7.9 28.7 7.9 13.5 0 23.6-3.9 31.5-11.8 5.1-5.1 9-11.2 10.1-18.6l-22.5-1.1c-3.4 7.3-9.6 10.7-18.6 10.7q-12.6 0-18.6-8.4a35.65 35.65 0 01-5.1-16.3h66.3v-5c0-15.8-3.9-28.7-11.2-37.7-7.2-10.2-18.4-14.7-32.5-14.7m-21.4 38.8c2.8-12.9 10.1-19.7 21.3-19.7 10.7 0 17.4 6.7 19.1 19.7zM1528.1 145.7a33.53 33.53 0 00-18.5-5c-11.8 0-21.4 5-28.7 14.6 0-5.1-.6-9-2.2-12.4H1454c1.1 3.9 2.3 7.9 2.3 10.7.5 4.5.5 12.4.5 24.2v62.4h25.3v-50c0-5 0-9 .6-11.2 1.1-5.1 2.8-9 6.2-11.8a18.24 18.24 0 0111.8-4.5c6.2 0 10.7 2.8 13.5 8.5 1.7 3.4 2.2 9.5 2.2 18.5v50.6h25.3v-56.2c0-7.9 0-13.5-.6-16.9-.6-9.7-5.1-17-13-21.5M1599.5 217.1c-1.1-1.7-1.7-5-1.7-10.1v-6.7l.5-37.7h20.2v-19.2h-19.7l.6-28.1h-24.2l-.5 28.1H1559v19.7h15.2l-1.1 37.7v10.1c0 9 1.1 15.7 3.9 19.7 5.1 7.9 12.9 11.8 24.2 11.8 6.8 0 14.6-1.7 22.5-4.5v-20.8c-5.6 2.3-10.1 3.4-14.6 3.4-5.7 0-7.9-1.2-9.6-3.4M1723.7 210.3v-66.9h-25.3v51.7c0 16.9-6.2 25.3-19.1 25.3-5.6 0-10.1-1.7-12.9-5.6-2.3-2.8-3.4-8.4-3.4-15.7v-55.7h-25.3v56.8a80.72 80.72 0 001.7 17.4 29.17 29.17 0 0012.9 19.1 38.5 38.5 0 0021.4 6.2c8.4 0 15.2-2.2 20.8-6.2 1.7-1.7 3.9-3.9 6.8-6.7a26.46 26.46 0 002.3 11.2h23.6a47.17 47.17 0 01-2.3-15.2c-1.2-2.7-1.2-7.8-1.2-15.7M1801.3 141.2a23.9 23.9 0 00-16.9 6.8c-3.9 3.4-7.3 8.4-10.7 15.7v-4.5a68.67 68.67 0 00-1.7-15.7h-24.2a208.37 208.37 0 011.1 23.6v73.7h25.3v-45c0-21.4 6.2-32 19.1-32a25.19 25.19 0 0115.2 5v-26.4a33.77 33.77 0 00-7.2-1.2M1864.1 110c-3.4 5.1-5.1 14.1-5.1 25.9v6.2h-12.9v19.7h12.9v77.6h25.3v-77.6h23v-19.7h-23v-2.2a63.37 63.37 0 011.1-12.9c1.1-4.5 4.5-6.7 9.5-6.7 3.9 0 9.6 1.1 16.3 3.4v-20.8c-7.9-2.8-15.2-4.5-22.5-4.5-11.6-.2-19.5 3.7-24.6 11.6M1945.6 99.3a13.55 13.55 0 00-10.1 3.9 13.21 13.21 0 00-3.9 9.6c0 3.9 1.1 7.3 3.9 9.6a13.21 13.21 0 009.6 3.9c3.9 0 7.3-1.1 9.6-3.9a13.21 13.21 0 003.9-9.6c0-3.9-1.1-7.3-3.9-9.6-2.3-2.8-5.1-3.9-9.1-3.9M1981.6 126.9c3.9 0 7.3-1.1 9.6-3.9a13.21 13.21 0 003.9-9.6c0-3.9-1.1-7.3-3.9-9.6a13.21 13.21 0 00-9.6-3.9 13.55 13.55 0 00-10.1 3.9 13.21 13.21 0 00-3.9 9.6c0 3.9 1.1 7.3 3.9 9.6a16.12 16.12 0 0010.1 3.9M2006.9 208.9V142h-25.3v51.7c0 16.9-6.2 25.3-19.1 25.3-5.6 0-10.1-1.7-12.9-5.6-2.3-2.8-3.4-8.4-3.4-15.7V142h-25.3v56.2a75.43 75.43 0 001.7 17.4 28.93 28.93 0 0012.9 19.1 38.5 38.5 0 0021.4 6.2c8.4 0 15.2-2.2 20.8-6.2 1.7-1.7 3.9-3.9 6.7-6.8a28.86 28.86 0 002.2 11.3h23.6a46.84 46.84 0 01-2.2-15.1c-1.1-2.2-1.1-7.3-1.1-15.2M2067.6 146.6c-3.9 3.4-7.3 8.4-10.7 15.7v-4.5a68.67 68.67 0 00-1.7-15.7h-24.1a209.74 209.74 0 011.1 23.6v73.7h25.3v-45c0-21.3 6.2-32 19.1-32a24.65 24.65 0 0115.2 5.1v-25.9a20.9 20.9 0 00-7.9-1.1 19.2 19.2 0 00-16.3 6.1M2187.4 102.7l-46.1 136.6h27l8.4-28.7h47.8l9 28.7h27l-46.1-136.6zm-3.4 85.4l16.9-55.7 16.9 55.7zM2309.3 146.6c-3.9 3.4-7.3 8.4-10.7 15.7v-4.5a68.67 68.67 0 00-1.7-15.7h-24.2a209.74 209.74 0 011.1 23.6v73.7h25.3v-45c0-21.3 6.2-32 19.1-32a24.65 24.65 0 0115.2 5.1v-25.9a20.9 20.9 0 00-7.9-1.1c-5.5-.7-11.1 1.5-16.2 6.1M2401 139.8c-10.7 0-19.7 5.1-26.4 14.6v-52.3h-25.3v119.8c0 7.9 0 13.5-.6 18h21.9a43.37 43.37 0 001.7-12.9c5.6 10.1 14 15.2 25.8 15.2 10.7 0 19.7-3.9 27.5-11.2 10.1-9.6 15.2-23.1 15.2-39.9 0-17.4-5.1-30.9-15.2-40.5-7.8-7.4-15.6-10.8-24.6-10.8m6.2 74.2a17.32 17.32 0 01-13.5 6.2 16.15 16.15 0 01-13.5-6.8c-3.9-5.6-6.2-13.5-6.2-23.1 0-9 1.7-16.3 5.6-21.9a16.79 16.79 0 0114.6-7.8c6.2 0 11.2 2.2 14.6 7.3 4 5.6 5.6 12.9 5.6 21.9.1 10.1-2.2 18-7.2 24.2M2498.8 139.2a46 46 0 00-19.7 3.9c-8.4 3.4-14.6 9-19.7 16.9-5.6 9-8.4 19.7-8.4 32a62 62 0 004.5 23c3.4 7.9 8.4 14.6 15.2 19.1 7.9 5.1 17.4 7.9 28.7 7.9 13.5 0 23.6-3.9 31.5-11.8 5-5.1 9-11.3 10.1-18.6l-22.5-1.1c-3.4 7.3-9.6 10.7-18.6 10.7-8.4 0-14.6-2.8-18.5-8.4a35.65 35.65 0 01-5.1-16.3h66.3v-5.1c0-15.8-3.9-28.7-11.2-37.7-7.9-10-18.6-14.5-32.6-14.5m-21.4 38.8c2.8-12.9 10.1-19.7 21.4-19.7 10.7 0 17.4 6.8 19.1 19.7zM2574.7 99.9c-4.5 0-7.9 1.1-10.7 3.9a14.8 14.8 0 00-4.5 11.2c0 4.5 1.1 7.9 4 10.1 2.8 2.8 6.2 3.9 10.7 3.9s7.9-1.1 10.1-3.9c2.8-2.8 3.9-6.2 3.9-10.7s-1.1-8.4-3.9-10.7c-2.3-2.7-5.7-3.8-9.6-3.8M2561.8 142h25.3v97.2h-25.3zM2644.4 215.7c-1.1-1.7-1.7-5.1-1.7-10.1v-6.7l.6-37.7h20.2v-19.1h-19.7l.6-28.1h-24.2l-.6 28.1h-15.8v19.7h15.2l-1.1 37.7v10.1c0 9 1.1 15.7 3.9 19.7 5.1 7.9 12.9 11.8 24.2 11.8 6.7 0 14.6-1.7 22.5-4.5v-20.8c-5.6 2.3-10.1 3.4-14.6 3.4-5-.1-7.8-1.3-9.5-3.5"/><path class="cls-3" d="M1392.2 313.7V352c5.5-8.2 11.7-11.8 20.6-11.8 16.5 0 27.9 14.4 27.9 35.8 0 21.8-11.7 36.3-29.1 36.3-9 0-14.9-3.5-19.9-11.4a29.06 29.06 0 01-1.2 9.7h-10.2c1.1-4.2 1.2-7.5 1.2-19.3v-77.5h10.7zm-.2 62.9c0 16.2 7.6 26.9 19 26.9s18.8-10.7 18.8-27.5c0-16.5-7-27-18.1-27-11.9 0-19.7 10.8-19.7 27.6M1475.3 342a42.71 42.71 0 011.4 10.5l-.2 4.2c5-11.4 10.8-16.6 18.5-16.6a20 20 0 018.7 2.2v10.1c-4.9-2.2-6.8-2.7-9.6-2.7-5.6 0-10.6 3.9-13.8 10.5-2.3 4.8-3.2 10.5-3.2 19.7v30.6h-10.8v-44.9c0-15.7-.2-16.9-1.2-23.5h10.2zM1537.5 320.4c0 4.2-3.2 7.2-7.7 7.2s-7.7-3-7.7-7.2 3.3-7.5 7.9-7.5a7.14 7.14 0 017.5 7.5m-2.1 90.1h-11.2V342h11.2zM1573.6 342a26 26 0 011.5 10c4.9-8 12.1-11.8 21.7-11.8 9.9 0 17.4 4.2 20.6 11.1 2 4.5 2.3 6.4 2.3 19.9v39.3h-10.6v-38.7c0-10.1-.3-12.6-1.8-15.9-2.1-4.3-6.5-6.8-12.6-6.8a18.36 18.36 0 00-15.5 8.1c-2.4 3.6-3.5 8.4-3.5 15v38.3h-10.6v-45.2c0-16.3 0-16.9-1.7-23.3zM1708.2 349.7l-14.7-.3c3.9 3.5 6.2 9.4 6.2 15.8s-2.6 12.1-7 15.5c-3.2 2.3-8.2 4-16.5 5.8-7 1.4-8.6 1.9-10.9 2.9-2.7 1.3-4.3 2.9-4.3 4.6 0 2.9 1.8 3.5 14.4 4.6 14 1.3 17.9 2 22.6 4.5a17 17 0 019.6 15.7c0 13.2-12.5 21.2-32.6 21.2-19.6 0-32.3-7.8-32.3-19.8 0-8.2 4.5-13.3 15.2-16.9-5.6-2-7.7-4.3-7.7-7.9 0-4.6 3.5-7.7 12.9-11-9.9-3.8-14.4-10.1-14.4-19.8 0-14.2 10.5-23.4 26.4-23.4a37.43 37.43 0 0111.2 1.6l22-.7v7.6zm-55.8 69.9c0 7.2 9 12 22.8 12s22.2-4.6 22.2-12c0-7.7-8-11.9-22.9-11.9-14.1.1-22.1 4.4-22.1 11.9m6.4-55.3c0 8.5 6.2 14.2 15.5 14.2s15.5-5.6 15.5-14.2-6.2-15-14.9-15c-9.6 0-16.1 6-16.1 15M1761.9 342v8.2h-17.1l-.8 34.7v7.1c0 8.7 1.7 11.1 8 11.1a25.78 25.78 0 0010.3-2.4v9a35.8 35.8 0 01-12.8 2.3c-7 0-12.3-2.2-14.7-6.2-1.5-2.3-2-4.9-2-10 0-1.3 0-3.6.1-5.8.2-2.9.2-4.8.2-5.3l.9-34.4h-10.8v-8.2h11.1l.4-19.8h10.3l-.3 19.8h17.2zM1833.1 342l15.5 54.4 16.8-54.4h9.1l16.9 54.4 15.4-54.4h11l-20.8 69.4h-10.5l-16.5-53.8-16.7 53.8H1843l-20.8-69.4h10.9zM1944.5 378c.5 16.6 7.7 25.6 20.8 25.6 7.9 0 12.6-2.9 16.7-10.4l9.9 1.2c-4.4 11.8-13.5 17.9-26.7 17.9-19.3 0-31.6-13.7-31.6-35.3 0-22.3 12.1-36.8 30.9-36.8 17.8 0 29.1 13.7 29.1 35 0 .4 0 1.6-.1 2.9h-49zm38-7.9c-1.2-13.9-7.7-21.4-18.5-21.4-10.5 0-17.1 7.4-19.3 21.4zM2032.5 320.4c0 4.2-3.2 7.2-7.7 7.2s-7.7-3-7.7-7.2 3.3-7.5 7.9-7.5a7.19 7.19 0 017.5 7.5m-2.2 90.1h-11.2V342h11.2zM2091.9 342v8.2h-17.1l-.7 34.7v7.1c0 8.7 1.7 11.1 8 11.1a25.78 25.78 0 0010.3-2.4v9a35.43 35.43 0 01-12.8 2.3c-7 0-12.3-2.2-14.7-6.2-1.5-2.3-2-4.9-2-10 0-1.3 0-3.6.1-5.8.2-2.9.2-4.8.2-5.3l.9-34.4h-10.8v-8.2h11.1l.4-19.8h10.3l-.3 19.8h17.1zM2120 378c.5 16.6 7.7 25.6 20.8 25.6 7.9 0 12.6-2.9 16.7-10.4l9.9 1.2c-4.4 11.8-13.5 17.9-26.7 17.9-19.3 0-31.6-13.7-31.6-35.3 0-22.3 12.2-36.8 31-36.8 17.8 0 29.1 13.7 29.1 35a19.37 19.37 0 01-.2 2.9h-49zm38.1-7.9c-1.2-13.9-7.7-21.4-18.5-21.4-10.5 0-17.1 7.4-19.3 21.4zM2203.8 342a42.71 42.71 0 011.4 10.5l-.1 4.2c5-11.4 10.8-16.6 18.5-16.6a19.25 19.25 0 018.6 2.2v10.1c-4.9-2.2-6.8-2.7-9.6-2.7-5.6 0-10.6 3.9-13.8 10.5-2.3 4.8-3.2 10.5-3.2 19.7v30.6h-10.8v-44.9c0-15.7-.1-16.9-1.2-23.5h10.2zM2260.5 403.7c0 4.5-3.9 8.2-8.8 8.2a8.31 8.31 0 118.8-8.2"/></g></svg>
